<?xml version="1.0" encoding="UTF-8"?><svg id="a" xmlns="http://www.w3.org/2000/svg" width="156.79" height="413.97" viewBox="0 0 156.79 413.97"><path d="m156.78,321.41c-.27-40.31-.81-110.45-.1-150.91.42-23.62-12.23-44.23-30.14-49.02-.59-.16-1.17-.31-1.75-.47-11.63-3.19-24.38-9.2-29.18-23.23-2.69-7.86-1.79-16.92-1.43-25.49.97-23.46,1.59-16.86,1.86-40.08,0,0,0-.02,0-.03.03.03.07.06.1.1,2.1,1.83,4.32,3.43,6.67,5,4.96,3.33,9.35,6.8,15.07,7.4,8.91.93,17.31-7.45,16.9-19.13.03-.72-.02-1.37-.17-2.05-.01-.11-.02-.2-.04-.31-.01-.14-.07-.25-.13-.34-.02-.07-.04-.14-.07-.19.31-.96.77-1.25,1.34-2.08.69-1,1.01-2.1,1.95-2.78.71-.51,1.5-.79,2.28-1.02,1.2-.37,1.35.05,2.4.76.28.19.52-.12.48-.47-.29-2.75-4.61-1.98-6.09-2.08-.36-.02-.65.06-.92.16-.05-.03-.11-.06-.17-.06-.36-.02-.74-.07-1.08.04-.38.12-.75.43-1.13.55-.71.22-1.26-.06-1.94.48-1.21.97-2.22,3.05-2.21,4.91,0,.18.04.35.07.52-.02.04-.05.08-.08.12-.42.66-.4,1.44-.6,2.19-.47,1.73-.85,3.1-1.91,4.54-2.54,3.51-5.75,4.78-9.05,6.54-2.29,1.22-4.28,2.84-6.88,2.57-4.17-.44-5.04-4.48-7.43-8.07-1.91-2.87-3.21-5.66-4.68-8.97-.71-1.59-1.61-2.79-2.53-4v5.95c.21.4.43.82.6,1.25,1.17,2.88,2.27,4.94,4.01,7.24-1.65-1.75-3.24-3.61-4.72-5.51-.03-.02-.06-.04-.08-.06.01-.04.01-.08.02-.11,0-.02.03-.03.05-.03,0-1.01,0-2,.02-3.01,0,0,0,.01,0,.02v-6.4s0,0,0,0c0-.91,0-1.83,0-2.74,0-3.27-1.12-6.39-3.09-8.45C90.11,1.59,86.34-.13,82.58.03l-6.66-.02c-3.77-.18-7.54,1.52-10.48,4.55-1.98,2.04-3.11,5.16-3.13,8.43-.24,29.83.2,29.44,1.28,59.33.31,8.58.62,17.53-2.11,25.37-4.87,14-17.66,19.95-29.3,23.08-.59.15-1.17.31-1.75.46C12.49,125.92-.28,146.46.02,170.09c.51,40.46.49,110.6,0,150.91-.1,8.24-.14,16.92,2.98,24.11,2.68,6.16,7.34,10.4,12.03,14.02,18.98,14.63,41.08,22.24,63.21,22.41,22.13.17,44.26-7.55,63.32-22.08,4.71-3.59,9.4-7.81,12.11-13.96,3.16-7.17,3.16-15.85,3.1-24.09ZM133.06,17.94c.1-.24.17-.5.27-.73.3-.64.54-.57,1.02-.58-.32.53-.62,1.13-1.01,1.69-.39.57-.69,1.04-.9,1.47.18-.63.37-1.26.61-1.85Zm-14.98,18.69c2.8-1.39,5.29-2.32,7.78-4.65,1.37-1.29,3.06-2.84,4.13-4.63.61-.2.81-.27,1.31.07.04.33.07.66.1.99.07.9.25,2.1.22,3.13-.03.33-.07.65-.11.97-.02.12-.02.22-.02.33-.76,2.07-1.97,3.88-4.15,5.43-4.08,2.92-9.06,3.7-13.54,2.08-.46-.17-.92-.36-1.38-.57,1.91-.78,3.83-2.24,5.64-3.15Zm-36.44-12.07c-.7.44-1.27.6-2.06.64-.79.04-1.58-.06-2.29-.4-1.66-.8-2.15-1.92-2.53-3.54-.35-1.48-.31-3.15.19-5.35.19-.85.9-2.12,1.89-2.68,1.17-.7,2.74-.8,3.96-.15.94.5,1.67,1.34,2.15,2.33-.87-1.29-1.9,4.72-1.07,7.95.02.09.24.25.58.45-.23.29-.5.55-.82.75Z" style="fill:#fff; stroke-width:0px;"/><path d="m31.49,411.21v-8.09l3.94-10.91c.27-.75,1.16-1.09,1.84-1.09h.24v-.54h-4.79v.54h.61c.68,0,1.12.48.92,1.05l-3.4,9.86-3.26-9.86c-.14-.44.07-1.05.78-1.05h.68v-.54h-6.9v.54h.14c1.29,0,1.56.54,1.83,1.26l4.22,11.56v7.28c0,.82-.03,1.7-1.16,1.8h-.54v.58h6.73v-.58h-.54c-1.29-.1-1.33-.99-1.33-1.8Z" style="fill:#fff; stroke-width:0px;"/><path d="m42.27,390.2c-4.15,0-6.9,5.44-6.9,11.76,0,5.95,2.55,12,6.9,12s6.9-6.22,6.9-12c0-6.32-2.69-11.76-6.9-11.76Zm0,22.98c-2.21,0-3.57-2.62-3.57-11.05s1.43-11.15,3.57-11.15,3.57,2.75,3.57,11.15-1.43,11.05-3.57,11.05Z" style="fill:#fff; stroke-width:0px;"/><path d="m95.55,411.21v-18.43c0-.68.03-1.67,1.33-1.67h.17v-.54h-10.81v.54c1.29,0,1.56.41,1.56,1.16,0,.51-2.69,11.73-3.47,15.16l-3.06-15.16c-.14-.71.27-1.16,1.02-1.16h.14v-.54h-10.85v.54h.51c.61,0,.88.34.88.75,0,.2-.07.44-.17.68-.48,1.12-3.37,6.29-5,9.28v-9.04c0-.68,0-1.67,1.39-1.67h.2v-.54h-6.32v.54h.2c1.36,0,1.36.99,1.36,1.67v18.43c0,.74-.04,1.6-.97,1.77-.79-.14-1.19-.75-1.55-1.87l-2.86-9.62c1.53-1.02,2.72-3.09,2.72-5.3,0-3.64-2.55-5.61-5.75-5.61h-6.76v.54h.31c1.36,0,1.36.99,1.36,1.67v18.43c0,.75-.03,1.8-1.36,1.8h-.31v.58h6.53v-.58h-.41c-1.22,0-1.29-1.05-1.29-1.8v-8.7l1.39.03c.51,0,.95.31,1.12.92l2.52,9.38c.07.2.37.75,1.05.75h9.01v-.58h-.24c-1.33,0-1.36-.99-1.36-1.8v-7.31l1.16-2.07,3.67,10.23c.2.54-.1.95-.65.95h-.34v.58h6.42v-.58c-.82,0-1.7-.17-2.41-2.07l-4.79-12.54,2.79-4.93c.59-1.02,1.26-2.26,2.86-2.33.7.06,1.07.52,1.32,1.58l4.86,20.91h1.19l5-20.67c.23-1,1.02-1.8,2.14-1.83,1.35.03,1.36.99,1.36,1.66v18.43c0,.82-.07,1.8-1.36,1.8h-.41v.58h6.49v-.58h-.31c-1.22,0-1.26-.99-1.26-1.8Zm-40.08-9.49c-.27,0-1.16-.03-1.16-.03v-10.4h1.05c1.33,0,3.43.51,3.43,5.03,0,2.24-.58,5.41-3.33,5.41Z" style="fill:#fff; stroke-width:0px;"/><path d="m105.1,412.85h-1.43c-.27,0-.82-.07-.82-.95v-19.11c0-.68,0-1.67,1.22-1.67h.31v-.54h-6.36v.54h.2c1.46,0,1.46.99,1.46,1.67v18.43c0,.75-.07,1.8-1.26,1.8h-.44v.58h11.32v-5.81h-.61c-.51,4.69-2.07,5.07-3.6,5.07Z" style="fill:#fff; stroke-width:0px;"/><path d="m117.03,412.85h-1.43c-.27,0-.82-.07-.82-.95v-19.11c0-.68,0-1.67,1.22-1.67h.31v-.54h-6.36v.54h.2c1.46,0,1.46.99,1.46,1.67v18.43c0,.75-.07,1.8-1.26,1.8h-.44v.58h11.32v-5.81h-.61c-.51,4.69-2.07,5.07-3.6,5.07Z" style="fill:#fff; stroke-width:0px;"/><path d="m129.07,412.85h-1.53c-.27,0-.82-.07-.82-.95v-9.82h.99c1.26,0,2.28.92,2.28,2.35v1.09h.68v-7.11h-.68v.75c0,1.46-1.12,2.18-2.28,2.18h-.99v-10h1.9c2.65,0,3.4,2.04,3.64,4.42h.61v-5.17h-11.01v.54h.37c1.33,0,1.33.99,1.33,1.67v18.43c0,.75-.07,1.8-1.26,1.8h-.44v.58h11.42v-5.81h-.61c-.51,4.69-2.07,5.07-3.6,5.07Z" style="fill:#fff; stroke-width:0px;"/><path d="m9.84,265.4c-1.59,0-2.19-.72-2.19-2.65l.1-6.13v-68.44l-.1-6.13c0-1.92.6-2.65,2.19-2.65h14.81c15.31,0,17.6,12.15,17.6,27.3v.24c0,15.28-2.78,27.3-17.6,27.3h-2.58c-.6,0-.8.24-.8.96v21.41l.1,6.13c0,1.92-.6,2.65-2.19,2.65h-9.34Zm11.93-71.57c-.3,0-.5.24-.5.6v24.78c0,.48.1.6.5.6h.6c5.07,0,6.36-4.93,6.36-12.75v-.36c0-7.94-1.29-12.87-6.26-12.87h-.7Zm31.91,59.3c-.6,0-.79.24-.89.96l-1.29,8.66c-.3,1.92-.99,2.65-2.58,2.65h-8.55c-1.49,0-2.09-.84-1.69-2.53l14.32-80.95c.4-1.8,1.09-2.53,2.68-2.53h6.26c1.59,0,2.29.72,2.68,2.53l14.51,80.95c.4,1.68-.2,2.53-1.69,2.53h-9.34c-1.59,0-2.29-.72-2.58-2.65l-1.29-8.66c-.1-.72-.3-.96-.89-.96h-9.64Zm3.58-30.31l-2.19,15.04c-.1.72.1.96.7.96h5.57c.6,0,.79-.24.7-.96l-2.09-15.04c-.5-3.49-.9-7.94-1.19-10.46h-.3c-.3,2.53-.7,6.98-1.19,10.46Zm52.89,39.93c0,1.92-.6,2.65-2.19,2.65h-23.66c-1.59,0-2.19-.72-2.19-2.65l.1-6.13v-68.44l-.1-6.13c0-1.92.6-2.65,2.19-2.65h9.34c1.59,0,2.19.72,2.19,2.65l-.1,6.13v61.47c0,.72.2.96.79.96h11.43c1.59,0,2.19.72,2.19,2.65v9.5Zm15.91-9.62c-.6,0-.79.24-.89.96l-1.29,8.66c-.3,1.92-.99,2.65-2.58,2.65h-8.55c-1.49,0-2.09-.84-1.69-2.53l14.32-80.95c.4-1.8,1.09-2.53,2.68-2.53h6.26c1.59,0,2.29.72,2.68,2.53l14.51,80.95c.4,1.68-.2,2.53-1.69,2.53h-9.34c-1.59,0-2.29-.72-2.58-2.65l-1.29-8.66c-.1-.72-.3-.96-.89-.96h-9.64Zm3.58-30.31l-2.19,15.04c-.1.72.1.96.7.96h5.57c.6,0,.79-.24.7-.96l-2.09-15.04c-.5-3.49-.9-7.94-1.19-10.46h-.3c-.3,2.53-.7,6.98-1.19,10.46Z" style="stroke-width:0px;"/><path d="m56.35,289.16v37.65h-2.76v-33.72l-3.2,1.14.02-2.94,5.94-2.12Zm23.48,28.61h-4.31v9.04h-2.76v-9.04h-12.59s15.35-28.58,15.35-28.58v25.91h4.31v2.68Zm-7.08-2.68v-15.11l-8.11,15.11h8.11Zm36.15-.88c0,7.34-5.95,13.29-13.29,13.29s-13.29-5.95-13.29-13.29c0-5.57,3.43-10.34,8.29-12.31-1.54-1.36-2.5-3.34-2.5-5.56,0-4.1,3.32-7.42,7.42-7.42s7.42,3.32,7.42,7.42c0,2.19-.95,4.15-2.46,5.51,4.92,1.94,8.41,6.75,8.41,12.36Zm-18.11-17.87c0,2.62,2.13,4.74,4.74,4.74s4.74-2.13,4.74-4.74-2.13-4.74-4.74-4.74-4.74,2.13-4.74,4.74Zm15.26,17.87c0-5.75-4.68-10.43-10.43-10.43s-10.43,4.68-10.43,10.43,4.68,10.43,10.43,10.43,10.43-4.68,10.43-10.43Z" style="stroke-width:0px;"/><polygon points="148.38 274.6 8.38 274.6 5.38 270.6 151.38 270.6 148.38 274.6" style="fill:#009246; stroke-width:0px;"/><polygon points="142.62 281.6 14.13 281.6 11.38 277.6 145.38 277.6 142.62 281.6" style="fill:#ce2b37; stroke-width:0px;"/></svg>