<?xml version="1.0" encoding="UTF-8"?><svg id="a" xmlns="http://www.w3.org/2000/svg" width="225.29" height="14.72" viewBox="0 0 225.29 14.72"><path d="m0,14.37c1.17-.1,1.75-.72,1.75-1.67V2.3c0-1-.62-1.55-1.75-1.65v-.2c.85.15,1.67.28,2.65.28.85,0,3.37-.38,4.3-.38,3.35,0,5.1,1.72,5.1,3.77,0,2.22-2.15,3.72-4.8,4.27.58.33,1.2.92,1.7,1.45l3.4,3.35c.53.58,1.2,1.2,2.32,1.1v.2c-.65.08-1.32.1-2,.08-1.12-.08-2.17-.55-2.92-1.42l-4.12-4.55c-.67.05-1.4.03-2.07-.08v4.17c0,.95.6,1.58,1.72,1.67v.2c-.88-.22-1.72-.3-2.62-.28-.9,0-1.77.1-2.65.28v-.2ZM10.05,4.02c0-2.12-1.62-3.42-3.9-3.42-1.1,0-2.6.35-2.6,1.7v5.9c4.65.97,6.5-1.53,6.5-4.17Z" style="fill:#fcee21; stroke-width:0px;"/><path d="m15.05,7.57C15.05,3.3,18.5.17,22.87.17s7.42,3.12,7.42,7.15c0,4.27-3.45,7.4-7.8,7.4s-7.45-3.12-7.45-7.15Zm13.25.05c0-4.8-2.82-7.22-5.95-7.22-3.45,0-5.3,2.95-5.3,6.85,0,4.8,2.82,7.25,5.95,7.25,3.47,0,5.3-2.97,5.3-6.87Z" style="fill:#fcee21; stroke-width:0px;"/><path d="m31.92,14.37c1.45-.17,2.07-1.17,2.15-2.67l.4-9.82c-.58-.8-.98-1.27-1.95-1.35v-.2c1.25.2,2.35.17,3.25.12l5.8,9.65L46.47.45c.87.08,2.5.03,3.32-.12v.2c-1.03.1-1.58.67-1.53,1.67l.4,10.5c.02.95.6,1.58,1.72,1.67v.2c-.88-.22-1.75-.3-2.62-.28-.9,0-1.77.1-2.65.28v-.2c1.17-.1,1.77-.72,1.75-1.67l-.4-11.75-5.7,11.22-6.12-10.02-.38,9.55c-.08,1.5.75,2.5,2.12,2.67v.2c-1.67-.38-2.77-.38-4.47,0v-.2Z" style="fill:#fcee21; stroke-width:0px;"/><path d="m51.2,14.37c1.4-.12,2.5-1.57,3.02-2.72L59.37,0h.2l5.4,12.5c.45,1,1.2,1.75,2.38,1.87v.2c-.88-.15-1.8-.28-2.7-.28s-1.85.1-2.75.28v-.2c1.1-.12,1.52-.92,1.12-1.87l-1.2-2.82h-6.47l-1.05,2.4c-.45,1.02-.38,2.17,1.5,2.3v.2c-.75-.15-1.52-.28-2.27-.28s-1.52.1-2.32.28v-.2Zm4.22-4.9h6.32l-3.1-7.37-3.22,7.37Z" style="fill:#fcee21; stroke-width:0px;"/><path d="m68.15,14.37c1.45-.17,2.15-1.17,2.15-2.67V1.72c-.62-.72-.97-1.1-1.95-1.2v-.2c1.2.22,2.35.25,3.35.12l9.4,11.12V3.2c0-1.5-.75-2.5-2.12-2.67v-.2c1.67.37,2.77.37,4.47,0v.2c-1.45.17-2.15,1.17-2.15,2.67v11.25h-.2l-10.6-12.5v9.75c0,1.5.75,2.5,2.12,2.67v.2c-1.67-.38-2.77-.38-4.47,0v-.2Z" style="fill:#fcee21; stroke-width:0px;"/><path d="m91.25,13.72c.42-.7.67-2.3.75-3.47h.22c-.25,2.55,1.38,4.27,3.5,4.27s3.2-1.85,3.2-3.12c0-1.58-1.55-2.52-3.32-3.62-1.77-1.1-3.7-2.32-3.7-4.35,0-1.85,1.62-3.25,4.35-3.25,1.08,0,2.05.22,2.92.22.47,0,.65,0,1.12-.07-.38.82-.5,1.85-.48,3.1h-.22c0-1.9-1.35-3.05-3.12-3.05-1.58,0-2.87.95-2.87,2.42,0,1.7,1.67,2.7,3.22,3.65,1.97,1.22,3.87,2.47,3.87,4.55s-1.7,3.72-4.85,3.72c-1.25,0-3.55-.28-4.6-1Z" style="fill:#fcee21; stroke-width:0px;"/><path d="m105.95,14.37c1.12-.1,1.75-.72,1.75-1.67V1.5c0-.47-.35-.85-.95-.85h-.75c-1.7,0-2.7,1.05-3.45,2.95h-.2c.45-1.15.8-2.27.32-3.35.42.15,1.2.2,3.12.2h5.57c1.93,0,2.7-.05,3.12-.2-.47,1.07-.12,2.2.32,3.35h-.2c-.75-1.9-1.72-2.95-3.45-2.95h-.75c-.6,0-.92.38-.92.85v11.2c0,.95.6,1.58,1.72,1.67v.2c-.87-.17-1.75-.28-2.62-.28s-1.77.1-2.65.28v-.2Z" style="fill:#fcee21; stroke-width:0px;"/><path d="m120.15,14.37c1.18-.1,1.72-.72,1.72-1.67v-3.3l-4.45-7c-.45-.7-1.2-1.72-2.4-1.88v-.2c.8.15,1.65.27,2.55.27.85,0,1.8-.1,2.7-.27v.2c-1.1.12-1.45,1.03-.9,1.88l4.2,6.57,3.8-6.1c.6-.95.62-2.22-1.25-2.35v-.2c.75.15,1.52.27,2.27.27.7,0,1.38-.1,2.12-.27v.2c-1.3.12-2.4,1.67-3.05,2.72l-3.8,6.05v3.4c0,.95.62,1.58,1.75,1.67v.2c-.88-.22-1.75-.3-2.65-.28-.88,0-1.75.1-2.62.28v-.2Z" style="fill:#fcee21; stroke-width:0px;"/><path d="m138.54,14.45h-4.42c-.95,0-1.85,0-2.8.12v-.2c1.18-.1,1.72-.77,1.75-1.77V2.2c0-.95-.57-1.57-1.75-1.67v-.2c.88.17,1.75.27,2.65.27s1.75-.05,2.62-.27v.2c-1.12.1-1.72.73-1.72,1.67v11.2c0,.47.33.85.93.85h2.55c1.72,0,2.7-1.05,3.45-2.95h.2c-.45,1.15-.8,2.27-.32,3.35-.43-.15-1.2-.2-3.12-.2Z" style="fill:#fcee21; stroke-width:0px;"/><path d="m150.92,14.45h-4.82c-.95,0-1.85,0-2.8.12v-.2c1.18-.1,1.72-.77,1.75-1.77V2.3c-.03-1.07-.62-1.67-1.75-1.77v-.2c.8.12,1.57.12,2.38.12h5.12c1.7,0,2.35-.05,2.75-.2-.1.88-.1,2.05.1,2.75h-.2c-.33-1.4-1.25-2.35-2.85-2.35h-2.82c-.62,0-.93.35-.93.85v5.7h3.5c1.22,0,1.92-.7,2.05-1.95h.2c-.23,1.45-.23,2.95,0,4.07h-.2c-.12-1.32-.82-1.92-2.05-1.92h-3.5v6c0,.47.33.85.93.85h2.95c1.72,0,2.7-1.05,3.45-2.95h.2c-.45,1.15-.8,2.27-.32,3.35-.43-.15-1.2-.2-3.12-.2Z" style="fill:#fcee21; stroke-width:0px;"/><path d="m162.25,14.37c1.17-.1,1.75-.72,1.75-1.67V2.3c0-1-.62-1.55-1.75-1.65v-.2c.85.15,1.67.28,2.65.28,1.65,0,2.88-.38,4.4-.38,3.4,0,5.52,1.82,5.52,4.17,0,3.65-3.8,5.65-9.02,4.6v3.37c0,1.07.75,1.75,2.12,1.87v.2c-1.03-.22-2-.3-3.03-.28-.9,0-1.77.1-2.65.28v-.2Zm10.57-9.92c0-2.35-1.72-3.9-4.15-3.9-1.2,0-2.87.4-2.87,1.75v6.62c4.1.97,7.02-.92,7.02-4.47Z" style="fill:#fcee21; stroke-width:0px;"/><path d="m176.72,14.37c1.17-.1,1.75-.72,1.75-1.67V2.2c0-1-.62-1.57-1.75-1.67v-.2c.88.15,1.75.3,2.65.27.88,0,1.75-.1,2.62-.27v.2c-1.18.1-1.72.67-1.72,1.67v10.5c0,.95.6,1.58,1.72,1.67v.2c-.88-.22-1.75-.3-2.62-.28-.9,0-1.77.1-2.65.28v-.2Z" style="fill:#fcee21; stroke-width:0px;"/><path d="m191.77,14.45h-4.62c-.98,0-1.95.03-2.93.12l-.07-.2,8.7-13.72h-5.02c-1.72,0-2.7,1.05-3.47,2.95h-.2c.47-1.15.8-2.27.32-3.35.45.15,1.2.2,3.15.2h4.32c.97,0,1.95,0,2.9-.12l.05.2-8.65,13.72h5.32c1.72,0,2.7-1.05,3.47-2.95h.2c-.47,1.15-.8,2.27-.33,3.35-.45-.15-1.2-.2-3.15-.2Z" style="fill:#fcee21; stroke-width:0px;"/><path d="m204.84,14.45h-4.62c-.97,0-1.95.03-2.92.12l-.08-.2,8.7-13.72h-5.02c-1.72,0-2.7,1.05-3.47,2.95h-.2c.48-1.15.8-2.27.33-3.35.45.15,1.2.2,3.15.2h4.32c.97,0,1.95,0,2.9-.12l.05.2-8.65,13.72h5.32c1.72,0,2.7-1.05,3.47-2.95h.2c-.47,1.15-.8,2.27-.32,3.35-.45-.15-1.2-.2-3.15-.2Z" style="fill:#fcee21; stroke-width:0px;"/><path d="m209.15,14.37c1.4-.12,2.5-1.57,3.03-2.72l5.15-11.65h.2l5.4,12.5c.45,1,1.2,1.75,2.38,1.87v.2c-.88-.15-1.8-.28-2.7-.28s-1.85.1-2.75.28v-.2c1.1-.12,1.53-.92,1.12-1.87l-1.2-2.82h-6.47l-1.05,2.4c-.45,1.02-.38,2.17,1.5,2.3v.2c-.75-.15-1.53-.28-2.28-.28s-1.52.1-2.32.28v-.2Zm4.22-4.9h6.32l-3.1-7.37-3.22,7.37Z" style="fill:#fcee21; stroke-width:0px;"/></svg>